<?xml version="1.0" standalone="no"?>
<svg xmlns="http://www.w3.org/2000/svg" width="300" height="300"><defs><clipPath id="clip-path-dot-color"><path d="M 20 76v 7h 3.5a 3.5 3.5, 0, 0, 0, 0 -7" transform="rotate(180,23.5,79.5)"/><path d="M 20 90v 7h 7v -3.5a 3.5 3.5, 0, 0, 0, -3.5 -3.5" transform="rotate(-90,23.5,93.5)"/><path d="M 20 97v 7h 7v -3.5a 3.5 3.5, 0, 0, 0, -3.5 -3.5" transform="rotate(180,23.5,100.5)"/><path d="M 20 111v 7h 3.5a 3.5 3.5, 0, 0, 0, 0 -7" transform="rotate(180,23.5,114.5)"/><path d="M 20 125v 7h 3.5a 3.5 3.5, 0, 0, 0, 0 -7" transform="rotate(-90,23.5,128.5)"/><path d="M 20 132v 7h 3.5a 3.5 3.5, 0, 0, 0, 0 -7" transform="rotate(90,23.5,135.5)"/><path d="M 20 209v 7h 7v -3.5a 3.5 3.5, 0, 0, 0, -3.5 -3.5" transform="rotate(-90,23.5,212.5)"/><path d="M 20 216v 7h 7v -3.5a 3.5 3.5, 0, 0, 0, -3.5 -3.5" transform="rotate(180,23.5,219.5)"/><rect x="27" y="76" width="7" height="7" transform="rotate(0,30.5,79.5)"/><rect x="27" y="83" width="7" height="7" transform="rotate(0,30.5,86.5)"/><rect x="27" y="90" width="7" height="7" transform="rotate(0,30.5,93.5)"/><rect x="27" y="97" width="7" height="7" transform="rotate(0,30.5,100.5)"/><rect x="27" y="104" width="7" height="7" transform="rotate(0,30.5,107.5)"/><rect x="27" y="111" width="7" height="7" transform="rotate(0,30.5,114.5)"/><path d="M 27 118v 7h 7v -3.5a 3.5 3.5, 0, 0, 0, -3.5 -3.5" transform="rotate(180,30.5,121.5)"/><path d="M 27 153v 7h 3.5a 3.5 3.5, 0, 0, 0, 0 -7" transform="rotate(-90,30.5,156.5)"/><rect x="27" y="160" width="7" height="7" transform="rotate(0,30.5,163.5)"/><rect x="27" y="167" width="7" height="7" transform="rotate(0,30.5,170.5)"/><path d="M 27 174v 7h 3.5a 3.5 3.5, 0, 0, 0, 0 -7" transform="rotate(90,30.5,177.5)"/><path d="M 27 188v 7h 3.5a 3.5 3.5, 0, 0, 0, 0 -7" transform="rotate(180,30.5,191.5)"/><rect x="27" y="209" width="7" height="7" transform="rotate(0,30.5,212.5)"/><path d="M 27 216v 7h 7v -3.5a 3.5 3.5, 0, 0, 0, -3.5 -3.5" transform="rotate(90,30.5,219.5)"/><path d="M 34 76v 7h 7v -3.5a 3.5 3.5, 0, 0, 0, -3.5 -3.5" transform="rotate(0,37.5,79.5)"/><rect x="34" y="83" width="7" height="7" transform="rotate(0,37.5,86.5)"/><path d="M 34 97v 7h 3.5a 3.5 3.5, 0, 0, 0, 0 -7" transform="rotate(0,37.5,100.5)"/><rect x="34" y="111" width="7" height="7" transform="rotate(0,37.5,114.5)"/><rect x="34" y="118" width="7" height="7" transform="rotate(0,37.5,121.5)"/><path d="M 34 125v 7h 3.5a 3.5 3.5, 0, 0, 0, 0 -7" transform="rotate(90,37.5,128.5)"/><circle cx="37.5" cy="149.5" r="3.5" transform="rotate(0,37.5,149.5)"/><path d="M 34 160v 7h 3.5a 3.5 3.5, 0, 0, 0, 0 -7" transform="rotate(0,37.5,163.5)"/><path d="M 34 181v 7h 7v -3.5a 3.5 3.5, 0, 0, 0, -3.5 -3.5" transform="rotate(-90,37.5,184.5)"/><path d="M 34 188v 7h 7v -3.5a 3.5 3.5, 0, 0, 0, -3.5 -3.5" transform="rotate(90,37.5,191.5)"/><path d="M 34 202v 7h 7v -3.5a 3.5 3.5, 0, 0, 0, -3.5 -3.5" transform="rotate(-90,37.5,205.5)"/><path d="M 34 209v 7h 7v -3.5a 3.5 3.5, 0, 0, 0, -3.5 -3.5" transform="rotate(90,37.5,212.5)"/><rect x="41" y="83" width="7" height="7" transform="rotate(0,44.5,86.5)"/><path d="M 41 90v 7h 7v -3.5a 3.5 3.5, 0, 0, 0, -3.5 -3.5" transform="rotate(180,44.5,93.5)"/><path d="M 41 111v 7h 7v -3.5a 3.5 3.5, 0, 0, 0, -3.5 -3.5" transform="rotate(0,44.5,114.5)"/><rect x="41" y="118" width="7" height="7" transform="rotate(0,44.5,121.5)"/><path d="M 41 132v 7h 3.5a 3.5 3.5, 0, 0, 0, 0 -7" transform="rotate(-90,44.5,135.5)"/><path d="M 41 139v 7h 3.5a 3.5 3.5, 0, 0, 0, 0 -7" transform="rotate(90,44.5,142.5)"/><circle cx="44.5" cy="156.5" r="3.5" transform="rotate(0,44.5,156.5)"/><path d="M 41 174v 7h 7v -3.5a 3.5 3.5, 0, 0, 0, -3.5 -3.5" transform="rotate(-90,44.5,177.5)"/><rect x="41" y="181" width="7" height="7" transform="rotate(0,44.5,184.5)"/><path d="M 41 195v 7h 3.5a 3.5 3.5, 0, 0, 0, 0 -7" transform="rotate(-90,44.5,198.5)"/><path d="M 41 202v 7h 7v -3.5a 3.5 3.5, 0, 0, 0, -3.5 -3.5" transform="rotate(90,44.5,205.5)"/><path d="M 48 83v 7h 7v -3.5a 3.5 3.5, 0, 0, 0, -3.5 -3.5" transform="rotate(0,51.5,86.5)"/><rect x="48" y="90" width="7" height="7" transform="rotate(0,51.5,93.5)"/><circle cx="51.5" cy="107.5" r="3.5" transform="rotate(0,51.5,107.5)"/><rect x="48" y="118" width="7" height="7" transform="rotate(0,51.5,121.5)"/><path d="M 48 125v 7h 3.5a 3.5 3.5, 0, 0, 0, 0 -7" transform="rotate(90,51.5,128.5)"/><rect x="48" y="174" width="7" height="7" transform="rotate(0,51.5,177.5)"/><rect x="48" y="181" width="7" height="7" transform="rotate(0,51.5,184.5)"/><path d="M 48 188v 7h 3.5a 3.5 3.5, 0, 0, 0, 0 -7" transform="rotate(90,51.5,191.5)"/><circle cx="51.5" cy="219.5" r="3.5" transform="rotate(0,51.5,219.5)"/><path d="M 55 76v 7h 3.5a 3.5 3.5, 0, 0, 0, 0 -7" transform="rotate(180,58.5,79.5)"/><rect x="55" y="90" width="7" height="7" transform="rotate(0,58.5,93.5)"/><path d="M 55 111v 7h 3.5a 3.5 3.5, 0, 0, 0, 0 -7" transform="rotate(-90,58.5,114.5)"/><rect x="55" y="118" width="7" height="7" transform="rotate(0,58.5,121.5)"/><circle cx="58.5" cy="142.5" r="3.5" transform="rotate(0,58.5,142.5)"/><circle cx="58.5" cy="156.5" r="3.5" transform="rotate(0,58.5,156.5)"/><rect x="55" y="174" width="7" height="7" transform="rotate(0,58.5,177.5)"/><path d="M 55 181v 7h 7v -3.5a 3.5 3.5, 0, 0, 0, -3.5 -3.5" transform="rotate(90,58.5,184.5)"/><circle cx="58.5" cy="198.5" r="3.5" transform="rotate(0,58.5,198.5)"/><circle cx="58.5" cy="212.5" r="3.5" transform="rotate(0,58.5,212.5)"/><rect x="62" y="76" width="7" height="7" transform="rotate(0,65.5,79.5)"/><path d="M 62 90v 7h 3.5a 3.5 3.5, 0, 0, 0, 0 -7" transform="rotate(0,65.5,93.5)"/><path d="M 62 104v 7h 3.5a 3.5 3.5, 0, 0, 0, 0 -7" transform="rotate(180,65.5,107.5)"/><path d="M 62 118v 7h 3.5a 3.5 3.5, 0, 0, 0, 0 -7" transform="rotate(0,65.5,121.5)"/><path d="M 62 132v 7h 3.5a 3.5 3.5, 0, 0, 0, 0 -7" transform="rotate(180,65.5,135.5)"/><circle cx="65.5" cy="149.5" r="3.5" transform="rotate(0,65.5,149.5)"/><circle cx="65.5" cy="163.5" r="3.5" transform="rotate(0,65.5,163.5)"/><path d="M 62 174v 7h 3.5a 3.5 3.5, 0, 0, 0, 0 -7" transform="rotate(0,65.5,177.5)"/><path d="M 62 188v 7h 3.5a 3.5 3.5, 0, 0, 0, 0 -7" transform="rotate(180,65.5,191.5)"/><path d="M 62 202v 7h 3.5a 3.5 3.5, 0, 0, 0, 0 -7" transform="rotate(180,65.5,205.5)"/><path d="M 62 216v 7h 3.5a 3.5 3.5, 0, 0, 0, 0 -7" transform="rotate(180,65.5,219.5)"/><rect x="69" y="76" width="7" height="7" transform="rotate(0,72.5,79.5)"/><path d="M 69 104v 7h 7v -3.5a 3.5 3.5, 0, 0, 0, -3.5 -3.5" transform="rotate(0,72.5,107.5)"/><path d="M 69 111v 7h 7v -3.5a 3.5 3.5, 0, 0, 0, -3.5 -3.5" transform="rotate(180,72.5,114.5)"/><path d="M 69 125v 7h 7v -3.5a 3.5 3.5, 0, 0, 0, -3.5 -3.5" transform="rotate(-90,72.5,128.5)"/><rect x="69" y="132" width="7" height="7" transform="rotate(0,72.5,135.5)"/><circle cx="72.5" cy="156.5" r="3.5" transform="rotate(0,72.5,156.5)"/><path d="M 69 181v 7h 3.5a 3.5 3.5, 0, 0, 0, 0 -7" transform="rotate(-90,72.5,184.5)"/><rect x="69" y="188" width="7" height="7" transform="rotate(0,72.5,191.5)"/><path d="M 69 202v 7h 3.5a 3.5 3.5, 0, 0, 0, 0 -7" transform="rotate(0,72.5,205.5)"/><rect x="69" y="216" width="7" height="7" transform="rotate(0,72.5,219.5)"/><path d="M 76 34v 7h 7v -3.5a 3.5 3.5, 0, 0, 0, -3.5 -3.5" transform="rotate(-90,79.5,37.5)"/><rect x="76" y="41" width="7" height="7" transform="rotate(0,79.5,44.5)"/><path d="M 76 48v 7h 7v -3.5a 3.5 3.5, 0, 0, 0, -3.5 -3.5" transform="rotate(180,79.5,51.5)"/><circle cx="79.5" cy="65.5" r="3.5" transform="rotate(0,79.5,65.5)"/><rect x="76" y="76" width="7" height="7" transform="rotate(0,79.5,79.5)"/><path d="M 76 97v 7h 3.5a 3.5 3.5, 0, 0, 0, 0 -7" transform="rotate(180,79.5,100.5)"/><path d="M 76 111v 7h 3.5a 3.5 3.5, 0, 0, 0, 0 -7" transform="rotate(0,79.5,114.5)"/><path d="M 76 125v 7h 7v -3.5a 3.5 3.5, 0, 0, 0, -3.5 -3.5" transform="rotate(0,79.5,128.5)"/><rect x="76" y="132" width="7" height="7" transform="rotate(0,79.5,135.5)"/><path d="M 76 139v 7h 7v -3.5a 3.5 3.5, 0, 0, 0, -3.5 -3.5" transform="rotate(180,79.5,142.5)"/><path d="M 76 167v 7h 3.5a 3.5 3.5, 0, 0, 0, 0 -7" transform="rotate(180,79.5,170.5)"/><path d="M 76 188v 7h 7v -3.5a 3.5 3.5, 0, 0, 0, -3.5 -3.5" transform="rotate(0,79.5,191.5)"/><path d="M 76 195v 7h 3.5a 3.5 3.5, 0, 0, 0, 0 -7" transform="rotate(90,79.5,198.5)"/><path d="M 76 209v 7h 3.5a 3.5 3.5, 0, 0, 0, 0 -7" transform="rotate(-90,79.5,212.5)"/><rect x="76" y="216" width="7" height="7" transform="rotate(0,79.5,219.5)"/><rect x="76" y="223" width="7" height="7" transform="rotate(0,79.5,226.5)"/><rect x="76" y="230" width="7" height="7" transform="rotate(0,79.5,233.5)"/><path d="M 76 237v 7h 7v -3.5a 3.5 3.5, 0, 0, 0, -3.5 -3.5" transform="rotate(180,79.5,240.5)"/><path d="M 76 258v 7h 3.5a 3.5 3.5, 0, 0, 0, 0 -7" transform="rotate(-90,79.5,261.5)"/><rect x="76" y="265" width="7" height="7" transform="rotate(0,79.5,268.5)"/><path d="M 76 272v 7h 3.5a 3.5 3.5, 0, 0, 0, 0 -7" transform="rotate(90,79.5,275.5)"/><circle cx="86.5" cy="23.5" r="3.5" transform="rotate(0,86.5,23.5)"/><rect x="83" y="34" width="7" height="7" transform="rotate(0,86.5,37.5)"/><rect x="83" y="41" width="7" height="7" transform="rotate(0,86.5,44.5)"/><rect x="83" y="48" width="7" height="7" transform="rotate(0,86.5,51.5)"/><path d="M 83 55v 7h 7v -3.5a 3.5 3.5, 0, 0, 0, -3.5 -3.5" transform="rotate(180,86.5,58.5)"/><path d="M 83 69v 7h 7v -3.5a 3.5 3.5, 0, 0, 0, -3.5 -3.5" transform="rotate(-90,86.5,72.5)"/><rect x="83" y="76" width="7" height="7" transform="rotate(0,86.5,79.5)"/><rect x="83" y="97" width="7" height="7" transform="rotate(0,86.5,100.5)"/><path d="M 83 118v 7h 3.5a 3.5 3.5, 0, 0, 0, 0 -7" transform="rotate(180,86.5,121.5)"/><path d="M 83 139v 7h 7v -3.5a 3.5 3.5, 0, 0, 0, -3.5 -3.5" transform="rotate(0,86.5,142.5)"/><path d="M 83 146v 7h 7v -3.5a 3.5 3.5, 0, 0, 0, -3.5 -3.5" transform="rotate(180,86.5,149.5)"/><path d="M 83 160v 7h 3.5a 3.5 3.5, 0, 0, 0, 0 -7" transform="rotate(-90,86.5,163.5)"/><rect x="83" y="167" width="7" height="7" transform="rotate(0,86.5,170.5)"/><path d="M 83 202v 7h 3.5a 3.5 3.5, 0, 0, 0, 0 -7" transform="rotate(180,86.5,205.5)"/><rect x="83" y="230" width="7" height="7" transform="rotate(0,86.5,233.5)"/><rect x="83" y="237" width="7" height="7" transform="rotate(0,86.5,240.5)"/><path d="M 83 265v 7h 3.5a 3.5 3.5, 0, 0, 0, 0 -7" transform="rotate(0,86.5,268.5)"/><path d="M 90 27v 7h 3.5a 3.5 3.5, 0, 0, 0, 0 -7" transform="rotate(-90,93.5,30.5)"/><path d="M 90 34v 7h 7v -3.5a 3.5 3.5, 0, 0, 0, -3.5 -3.5" transform="rotate(90,93.5,37.5)"/><rect x="90" y="48" width="7" height="7" transform="rotate(0,93.5,51.5)"/><rect x="90" y="55" width="7" height="7" transform="rotate(0,93.5,58.5)"/><rect x="90" y="62" width="7" height="7" transform="rotate(0,93.5,65.5)"/><rect x="90" y="69" width="7" height="7" transform="rotate(0,93.5,72.5)"/><rect x="90" y="76" width="7" height="7" transform="rotate(0,93.5,79.5)"/><path d="M 90 83v 7h 7v -3.5a 3.5 3.5, 0, 0, 0, -3.5 -3.5" transform="rotate(180,93.5,86.5)"/><path d="M 90 97v 7h 7v -3.5a 3.5 3.5, 0, 0, 0, -3.5 -3.5" transform="rotate(0,93.5,100.5)"/><rect x="90" y="104" width="7" height="7" transform="rotate(0,93.5,107.5)"/><rect x="90" y="111" width="7" height="7" transform="rotate(0,93.5,114.5)"/><rect x="90" y="118" width="7" height="7" transform="rotate(0,93.5,121.5)"/><rect x="90" y="125" width="7" height="7" transform="rotate(0,93.5,128.5)"/><path d="M 90 132v 7h 3.5a 3.5 3.5, 0, 0, 0, 0 -7" transform="rotate(90,93.5,135.5)"/><rect x="90" y="146" width="7" height="7" transform="rotate(0,93.5,149.5)"/><path d="M 90 153v 7h 3.5a 3.5 3.5, 0, 0, 0, 0 -7" transform="rotate(90,93.5,156.5)"/><rect x="90" y="167" width="7" height="7" transform="rotate(0,93.5,170.5)"/><path d="M 90 181v 7h 3.5a 3.5 3.5, 0, 0, 0, 0 -7" transform="rotate(-90,93.5,184.5)"/><path d="M 90 188v 7h 7v -3.5a 3.5 3.5, 0, 0, 0, -3.5 -3.5" transform="rotate(180,93.5,191.5)"/><path d="M 90 202v 7h 7v -3.5a 3.5 3.5, 0, 0, 0, -3.5 -3.5" transform="rotate(0,93.5,205.5)"/><rect x="90" y="209" width="7" height="7" transform="rotate(0,93.5,212.5)"/><rect x="90" y="216" width="7" height="7" transform="rotate(0,93.5,219.5)"/><rect x="90" y="223" width="7" height="7" transform="rotate(0,93.5,226.5)"/><rect x="90" y="230" width="7" height="7" transform="rotate(0,93.5,233.5)"/><rect x="90" y="237" width="7" height="7" transform="rotate(0,93.5,240.5)"/><path d="M 90 244v 7h 3.5a 3.5 3.5, 0, 0, 0, 0 -7" transform="rotate(90,93.5,247.5)"/><path d="M 90 272v 7h 3.5a 3.5 3.5, 0, 0, 0, 0 -7" transform="rotate(180,93.5,275.5)"/><path d="M 97 48v 7h 3.5a 3.5 3.5, 0, 0, 0, 0 -7" transform="rotate(0,100.5,51.5)"/><path d="M 97 69v 7h 7v -3.5a 3.5 3.5, 0, 0, 0, -3.5 -3.5" transform="rotate(0,100.5,72.5)"/><rect x="97" y="76" width="7" height="7" transform="rotate(0,100.5,79.5)"/><rect x="97" y="83" width="7" height="7" transform="rotate(0,100.5,86.5)"/><rect x="97" y="111" width="7" height="7" transform="rotate(0,100.5,114.5)"/><rect x="97" y="118" width="7" height="7" transform="rotate(0,100.5,121.5)"/><rect x="97" y="125" width="7" height="7" transform="rotate(0,100.5,128.5)"/><path d="M 97 139v 7h 7v -3.5a 3.5 3.5, 0, 0, 0, -3.5 -3.5" transform="rotate(-90,100.5,142.5)"/><rect x="97" y="146" width="7" height="7" transform="rotate(0,100.5,149.5)"/><path d="M 97 160v 7h 7v -3.5a 3.5 3.5, 0, 0, 0, -3.5 -3.5" transform="rotate(-90,100.5,163.5)"/><path d="M 97 167v 7h 7v -3.5a 3.5 3.5, 0, 0, 0, -3.5 -3.5" transform="rotate(90,100.5,170.5)"/><rect x="97" y="188" width="7" height="7" transform="rotate(0,100.5,191.5)"/><rect x="97" y="209" width="7" height="7" transform="rotate(0,100.5,212.5)"/><circle cx="100.5" cy="254.5" r="3.5" transform="rotate(0,100.5,254.5)"/><path d="M 97 265v 7h 7v -3.5a 3.5 3.5, 0, 0, 0, -3.5 -3.5" transform="rotate(-90,100.5,268.5)"/><rect x="97" y="272" width="7" height="7" transform="rotate(0,100.5,275.5)"/><path d="M 104 27v 7h 3.5a 3.5 3.5, 0, 0, 0, 0 -7" transform="rotate(-90,107.5,30.5)"/><rect x="104" y="34" width="7" height="7" transform="rotate(0,107.5,37.5)"/><path d="M 104 41v 7h 3.5a 3.5 3.5, 0, 0, 0, 0 -7" transform="rotate(90,107.5,44.5)"/><path d="M 104 55v 7h 3.5a 3.5 3.5, 0, 0, 0, 0 -7" transform="rotate(-90,107.5,58.5)"/><path d="M 104 62v 7h 3.5a 3.5 3.5, 0, 0, 0, 0 -7" transform="rotate(90,107.5,65.5)"/><path d="M 104 76v 7h 7v -3.5a 3.5 3.5, 0, 0, 0, -3.5 -3.5" transform="rotate(0,107.5,79.5)"/><rect x="104" y="83" width="7" height="7" transform="rotate(0,107.5,86.5)"/><rect x="104" y="90" width="7" height="7" transform="rotate(0,107.5,93.5)"/><rect x="104" y="97" width="7" height="7" transform="rotate(0,107.5,100.5)"/><rect x="104" y="104" width="7" height="7" transform="rotate(0,107.5,107.5)"/><rect x="104" y="111" width="7" height="7" transform="rotate(0,107.5,114.5)"/><rect x="104" y="118" width="7" height="7" transform="rotate(0,107.5,121.5)"/><rect x="104" y="125" width="7" height="7" transform="rotate(0,107.5,128.5)"/><path d="M 104 139v 7h 7v -3.5a 3.5 3.5, 0, 0, 0, -3.5 -3.5" transform="rotate(0,107.5,142.5)"/><rect x="104" y="146" width="7" height="7" transform="rotate(0,107.5,149.5)"/><rect x="104" y="160" width="7" height="7" transform="rotate(0,107.5,163.5)"/><path d="M 104 181v 7h 7v -3.5a 3.5 3.5, 0, 0, 0, -3.5 -3.5" transform="rotate(-90,107.5,184.5)"/><rect x="104" y="188" width="7" height="7" transform="rotate(0,107.5,191.5)"/><path d="M 104 195v 7h 3.5a 3.5 3.5, 0, 0, 0, 0 -7" transform="rotate(90,107.5,198.5)"/><rect x="104" y="209" width="7" height="7" transform="rotate(0,107.5,212.5)"/><path d="M 104 223v 7h 3.5a 3.5 3.5, 0, 0, 0, 0 -7" transform="rotate(-90,107.5,226.5)"/><rect x="104" y="230" width="7" height="7" transform="rotate(0,107.5,233.5)"/><rect x="104" y="237" width="7" height="7" transform="rotate(0,107.5,240.5)"/><path d="M 104 244v 7h 3.5a 3.5 3.5, 0, 0, 0, 0 -7" transform="rotate(90,107.5,247.5)"/><path d="M 104 258v 7h 3.5a 3.5 3.5, 0, 0, 0, 0 -7" transform="rotate(-90,107.5,261.5)"/><rect x="104" y="265" width="7" height="7" transform="rotate(0,107.5,268.5)"/><rect x="104" y="272" width="7" height="7" transform="rotate(0,107.5,275.5)"/><path d="M 111 97v 7h 3.5a 3.5 3.5, 0, 0, 0, 0 -7" transform="rotate(0,114.5,100.5)"/><path d="M 111 118v 7h 7v -3.5a 3.5 3.5, 0, 0, 0, -3.5 -3.5" transform="rotate(0,114.5,121.5)"/><rect x="111" y="125" width="7" height="7" transform="rotate(0,114.5,128.5)"/><path d="M 111 132v 7h 7v -3.5a 3.5 3.5, 0, 0, 0, -3.5 -3.5" transform="rotate(180,114.5,135.5)"/><path d="M 111 146v 7h 3.5a 3.5 3.5, 0, 0, 0, 0 -7" transform="rotate(0,114.5,149.5)"/><path d="M 111 160v 7h 7v -3.5a 3.5 3.5, 0, 0, 0, -3.5 -3.5" transform="rotate(0,114.5,163.5)"/><path d="M 111 167v 7h 3.5a 3.5 3.5, 0, 0, 0, 0 -7" transform="rotate(90,114.5,170.5)"/><path d="M 111 181v 7h 3.5a 3.5 3.5, 0, 0, 0, 0 -7" transform="rotate(0,114.5,184.5)"/><path d="M 111 202v 7h 3.5a 3.5 3.5, 0, 0, 0, 0 -7" transform="rotate(-90,114.5,205.5)"/><rect x="111" y="209" width="7" height="7" transform="rotate(0,114.5,212.5)"/><path d="M 111 216v 7h 7v -3.5a 3.5 3.5, 0, 0, 0, -3.5 -3.5" transform="rotate(180,114.5,219.5)"/><rect x="111" y="230" width="7" height="7" transform="rotate(0,114.5,233.5)"/><path d="M 111 251v 7h 3.5a 3.5 3.5, 0, 0, 0, 0 -7" transform="rotate(180,114.5,254.5)"/><rect x="111" y="272" width="7" height="7" transform="rotate(0,114.5,275.5)"/><path d="M 118 20v 7h 3.5a 3.5 3.5, 0, 0, 0, 0 -7" transform="rotate(-90,121.5,23.5)"/><path d="M 118 27v 7h 3.5a 3.5 3.5, 0, 0, 0, 0 -7" transform="rotate(90,121.5,30.5)"/><path d="M 118 48v 7h 7v -3.5a 3.5 3.5, 0, 0, 0, -3.5 -3.5" transform="rotate(-90,121.5,51.5)"/><rect x="118" y="55" width="7" height="7" transform="rotate(0,121.5,58.5)"/><path d="M 118 62v 7h 3.5a 3.5 3.5, 0, 0, 0, 0 -7" transform="rotate(90,121.5,65.5)"/><path d="M 118 76v 7h 3.5a 3.5 3.5, 0, 0, 0, 0 -7" transform="rotate(-90,121.5,79.5)"/><path d="M 118 83v 7h 3.5a 3.5 3.5, 0, 0, 0, 0 -7" transform="rotate(90,121.5,86.5)"/><rect x="118" y="125" width="7" height="7" transform="rotate(0,121.5,128.5)"/><rect x="118" y="132" width="7" height="7" transform="rotate(0,121.5,135.5)"/><path d="M 118 153v 7h 3.5a 3.5 3.5, 0, 0, 0, 0 -7" transform="rotate(180,121.5,156.5)"/><circle cx="121.5" cy="177.5" r="3.5" transform="rotate(0,121.5,177.5)"/><path d="M 118 188v 7h 3.5a 3.5 3.5, 0, 0, 0, 0 -7" transform="rotate(180,121.5,191.5)"/><rect x="118" y="209" width="7" height="7" transform="rotate(0,121.5,212.5)"/><rect x="118" y="216" width="7" height="7" transform="rotate(0,121.5,219.5)"/><rect x="118" y="223" width="7" height="7" transform="rotate(0,121.5,226.5)"/><path d="M 118 230v 7h 7v -3.5a 3.5 3.5, 0, 0, 0, -3.5 -3.5" transform="rotate(90,121.5,233.5)"/><path d="M 118 251v 7h 3.5a 3.5 3.5, 0, 0, 0, 0 -7" transform="rotate(0,121.5,254.5)"/><path d="M 118 265v 7h 3.5a 3.5 3.5, 0, 0, 0, 0 -7" transform="rotate(-90,121.5,268.5)"/><rect x="118" y="272" width="7" height="7" transform="rotate(0,121.5,275.5)"/><path d="M 125 34v 7h 3.5a 3.5 3.5, 0, 0, 0, 0 -7" transform="rotate(180,128.5,37.5)"/><path d="M 125 48v 7h 7v -3.5a 3.5 3.5, 0, 0, 0, -3.5 -3.5" transform="rotate(0,128.5,51.5)"/><rect x="125" y="55" width="7" height="7" transform="rotate(0,128.5,58.5)"/><circle cx="128.5" cy="72.5" r="3.5" transform="rotate(0,128.5,72.5)"/><path d="M 125 97v 7h 3.5a 3.5 3.5, 0, 0, 0, 0 -7" transform="rotate(180,128.5,100.5)"/><path d="M 125 111v 7h 3.5a 3.5 3.5, 0, 0, 0, 0 -7" transform="rotate(180,128.5,114.5)"/><rect x="125" y="125" width="7" height="7" transform="rotate(0,128.5,128.5)"/><rect x="125" y="132" width="7" height="7" transform="rotate(0,128.5,135.5)"/><rect x="125" y="153" width="7" height="7" transform="rotate(0,128.5,156.5)"/><path d="M 125 160v 7h 7v -3.5a 3.5 3.5, 0, 0, 0, -3.5 -3.5" transform="rotate(180,128.5,163.5)"/><path d="M 125 181v 7h 3.5a 3.5 3.5, 0, 0, 0, 0 -7" transform="rotate(-90,128.5,184.5)"/><path d="M 125 188v 7h 7v -3.5a 3.5 3.5, 0, 0, 0, -3.5 -3.5" transform="rotate(90,128.5,191.5)"/><path d="M 125 202v 7h 3.5a 3.5 3.5, 0, 0, 0, 0 -7" transform="rotate(-90,128.5,205.5)"/><rect x="125" y="209" width="7" height="7" transform="rotate(0,128.5,212.5)"/><rect x="125" y="223" width="7" height="7" transform="rotate(0,128.5,226.5)"/><path d="M 125 237v 7h 3.5a 3.5 3.5, 0, 0, 0, 0 -7" transform="rotate(180,128.5,240.5)"/><rect x="125" y="272" width="7" height="7" transform="rotate(0,128.5,275.5)"/><path d="M 132 34v 7h 7v -3.5a 3.5 3.5, 0, 0, 0, -3.5 -3.5" transform="rotate(0,135.5,37.5)"/><path d="M 132 41v 7h 7v -3.5a 3.5 3.5, 0, 0, 0, -3.5 -3.5" transform="rotate(180,135.5,44.5)"/><rect x="132" y="55" width="7" height="7" transform="rotate(0,135.5,58.5)"/><path d="M 132 62v 7h 3.5a 3.5 3.5, 0, 0, 0, 0 -7" transform="rotate(90,135.5,65.5)"/><path d="M 132 97v 7h 7v -3.5a 3.5 3.5, 0, 0, 0, -3.5 -3.5" transform="rotate(0,135.5,100.5)"/><rect x="132" y="104" width="7" height="7" transform="rotate(0,135.5,107.5)"/><rect x="132" y="111" width="7" height="7" transform="rotate(0,135.5,114.5)"/><rect x="132" y="118" width="7" height="7" transform="rotate(0,135.5,121.5)"/><rect x="132" y="125" width="7" height="7" transform="rotate(0,135.5,128.5)"/><rect x="132" y="132" width="7" height="7" transform="rotate(0,135.5,135.5)"/><path d="M 132 139v 7h 7v -3.5a 3.5 3.5, 0, 0, 0, -3.5 -3.5" transform="rotate(180,135.5,142.5)"/><path d="M 132 153v 7h 7v -3.5a 3.5 3.5, 0, 0, 0, -3.5 -3.5" transform="rotate(0,135.5,156.5)"/><path d="M 132 160v 7h 7v -3.5a 3.5 3.5, 0, 0, 0, -3.5 -3.5" transform="rotate(90,135.5,163.5)"/><path d="M 132 174v 7h 3.5a 3.5 3.5, 0, 0, 0, 0 -7" transform="rotate(180,135.5,177.5)"/><circle cx="135.5" cy="198.5" r="3.5" transform="rotate(0,135.5,198.5)"/><path d="M 132 209v 7h 7v -3.5a 3.5 3.5, 0, 0, 0, -3.5 -3.5" transform="rotate(0,135.5,212.5)"/><rect x="132" y="216" width="7" height="7" transform="rotate(0,135.5,219.5)"/><rect x="132" y="223" width="7" height="7" transform="rotate(0,135.5,226.5)"/><rect x="132" y="230" width="7" height="7" transform="rotate(0,135.5,233.5)"/><rect x="132" y="237" width="7" height="7" transform="rotate(0,135.5,240.5)"/><path d="M 132 244v 7h 3.5a 3.5 3.5, 0, 0, 0, 0 -7" transform="rotate(90,135.5,247.5)"/><path d="M 132 258v 7h 3.5a 3.5 3.5, 0, 0, 0, 0 -7" transform="rotate(-90,135.5,261.5)"/><rect x="132" y="265" width="7" height="7" transform="rotate(0,135.5,268.5)"/><path d="M 132 272v 7h 7v -3.5a 3.5 3.5, 0, 0, 0, -3.5 -3.5" transform="rotate(90,135.5,275.5)"/><circle cx="142.5" cy="23.5" r="3.5" transform="rotate(0,142.5,23.5)"/><path d="M 139 41v 7h 7v -3.5a 3.5 3.5, 0, 0, 0, -3.5 -3.5" transform="rotate(0,142.5,44.5)"/><rect x="139" y="48" width="7" height="7" transform="rotate(0,142.5,51.5)"/><rect x="139" y="55" width="7" height="7" transform="rotate(0,142.5,58.5)"/><path d="M 139 69v 7h 3.5a 3.5 3.5, 0, 0, 0, 0 -7" transform="rotate(-90,142.5,72.5)"/><rect x="139" y="76" width="7" height="7" transform="rotate(0,142.5,79.5)"/><rect x="139" y="83" width="7" height="7" transform="rotate(0,142.5,86.5)"/><path d="M 139 90v 7h 7v -3.5a 3.5 3.5, 0, 0, 0, -3.5 -3.5" transform="rotate(180,142.5,93.5)"/><path d="M 139 104v 7h 3.5a 3.5 3.5, 0, 0, 0, 0 -7" transform="rotate(0,142.5,107.5)"/><path d="M 139 139v 7h 7v -3.5a 3.5 3.5, 0, 0, 0, -3.5 -3.5" transform="rotate(0,142.5,142.5)"/><path d="M 139 146v 7h 7v -3.5a 3.5 3.5, 0, 0, 0, -3.5 -3.5" transform="rotate(180,142.5,149.5)"/><rect x="139" y="174" width="7" height="7" transform="rotate(0,142.5,177.5)"/><path d="M 139 181v 7h 7v -3.5a 3.5 3.5, 0, 0, 0, -3.5 -3.5" transform="rotate(180,142.5,184.5)"/><path d="M 139 202v 7h 3.5a 3.5 3.5, 0, 0, 0, 0 -7" transform="rotate(180,142.5,205.5)"/><path d="M 139 265v 7h 3.5a 3.5 3.5, 0, 0, 0, 0 -7" transform="rotate(0,142.5,268.5)"/><path d="M 146 27v 7h 3.5a 3.5 3.5, 0, 0, 0, 0 -7" transform="rotate(-90,149.5,30.5)"/><path d="M 146 34v 7h 3.5a 3.5 3.5, 0, 0, 0, 0 -7" transform="rotate(90,149.5,37.5)"/><path d="M 146 55v 7h 7v -3.5a 3.5 3.5, 0, 0, 0, -3.5 -3.5" transform="rotate(0,149.5,58.5)"/><path d="M 146 62v 7h 3.5a 3.5 3.5, 0, 0, 0, 0 -7" transform="rotate(90,149.5,65.5)"/><path d="M 146 76v 7h 7v -3.5a 3.5 3.5, 0, 0, 0, -3.5 -3.5" transform="rotate(0,149.5,79.5)"/><rect x="146" y="83" width="7" height="7" transform="rotate(0,149.5,86.5)"/><rect x="146" y="90" width="7" height="7" transform="rotate(0,149.5,93.5)"/><path d="M 146 97v 7h 7v -3.5a 3.5 3.5, 0, 0, 0, -3.5 -3.5" transform="rotate(180,149.5,100.5)"/><path d="M 146 118v 7h 3.5a 3.5 3.5, 0, 0, 0, 0 -7" transform="rotate(180,149.5,121.5)"/><path d="M 146 132v 7h 3.5a 3.5 3.5, 0, 0, 0, 0 -7" transform="rotate(180,149.5,135.5)"/><path d="M 146 146v 7h 3.5a 3.5 3.5, 0, 0, 0, 0 -7" transform="rotate(0,149.5,149.5)"/><path d="M 146 160v 7h 7v -3.5a 3.5 3.5, 0, 0, 0, -3.5 -3.5" transform="rotate(-90,149.5,163.5)"/><rect x="146" y="167" width="7" height="7" transform="rotate(0,149.5,170.5)"/><rect x="146" y="174" width="7" height="7" transform="rotate(0,149.5,177.5)"/><rect x="146" y="181" width="7" height="7" transform="rotate(0,149.5,184.5)"/><path d="M 146 195v 7h 3.5a 3.5 3.5, 0, 0, 0, 0 -7" transform="rotate(-90,149.5,198.5)"/><rect x="146" y="202" width="7" height="7" transform="rotate(0,149.5,205.5)"/><rect x="146" y="209" width="7" height="7" transform="rotate(0,149.5,212.5)"/><rect x="146" y="216" width="7" height="7" transform="rotate(0,149.5,219.5)"/><rect x="146" y="223" width="7" height="7" transform="rotate(0,149.5,226.5)"/><rect x="146" y="230" width="7" height="7" transform="rotate(0,149.5,233.5)"/><path d="M 146 237v 7h 7v -3.5a 3.5 3.5, 0, 0, 0, -3.5 -3.5" transform="rotate(180,149.5,240.5)"/><path d="M 146 251v 7h 3.5a 3.5 3.5, 0, 0, 0, 0 -7" transform="rotate(-90,149.5,254.5)"/><path d="M 146 258v 7h 3.5a 3.5 3.5, 0, 0, 0, 0 -7" transform="rotate(90,149.5,261.5)"/><circle cx="149.5" cy="275.5" r="3.5" transform="rotate(0,149.5,275.5)"/><path d="M 153 41v 7h 7v -3.5a 3.5 3.5, 0, 0, 0, -3.5 -3.5" transform="rotate(-90,156.5,44.5)"/><path d="M 153 48v 7h 3.5a 3.5 3.5, 0, 0, 0, 0 -7" transform="rotate(90,156.5,51.5)"/><rect x="153" y="83" width="7" height="7" transform="rotate(0,156.5,86.5)"/><path d="M 153 97v 7h 7v -3.5a 3.5 3.5, 0, 0, 0, -3.5 -3.5" transform="rotate(0,156.5,100.5)"/><path d="M 153 104v 7h 3.5a 3.5 3.5, 0, 0, 0, 0 -7" transform="rotate(90,156.5,107.5)"/><rect x="153" y="118" width="7" height="7" transform="rotate(0,156.5,121.5)"/><rect x="153" y="132" width="7" height="7" transform="rotate(0,156.5,135.5)"/><path d="M 153 139v 7h 3.5a 3.5 3.5, 0, 0, 0, 0 -7" transform="rotate(90,156.5,142.5)"/><path d="M 153 153v 7h 3.5a 3.5 3.5, 0, 0, 0, 0 -7" transform="rotate(-90,156.5,156.5)"/><rect x="153" y="160" width="7" height="7" transform="rotate(0,156.5,163.5)"/><rect x="153" y="167" width="7" height="7" transform="rotate(0,156.5,170.5)"/><rect x="153" y="174" width="7" height="7" transform="rotate(0,156.5,177.5)"/><rect x="153" y="181" width="7" height="7" transform="rotate(0,156.5,184.5)"/><path d="M 153 188v 7h 7v -3.5a 3.5 3.5, 0, 0, 0, -3.5 -3.5" transform="rotate(180,156.5,191.5)"/><rect x="153" y="209" width="7" height="7" transform="rotate(0,156.5,212.5)"/><path d="M 153 223v 7h 7v -3.5a 3.5 3.5, 0, 0, 0, -3.5 -3.5" transform="rotate(0,156.5,226.5)"/><rect x="153" y="230" width="7" height="7" transform="rotate(0,156.5,233.5)"/><path d="M 153 237v 7h 7v -3.5a 3.5 3.5, 0, 0, 0, -3.5 -3.5" transform="rotate(90,156.5,240.5)"/><path d="M 160 27v 7h 3.5a 3.5 3.5, 0, 0, 0, 0 -7" transform="rotate(-90,163.5,30.5)"/><rect x="160" y="34" width="7" height="7" transform="rotate(0,163.5,37.5)"/><path d="M 160 41v 7h 7v -3.5a 3.5 3.5, 0, 0, 0, -3.5 -3.5" transform="rotate(90,163.5,44.5)"/><path d="M 160 55v 7h 3.5a 3.5 3.5, 0, 0, 0, 0 -7" transform="rotate(-90,163.5,58.5)"/><path d="M 160 62v 7h 3.5a 3.5 3.5, 0, 0, 0, 0 -7" transform="rotate(90,163.5,65.5)"/><path d="M 160 76v 7h 3.5a 3.5 3.5, 0, 0, 0, 0 -7" transform="rotate(-90,163.5,79.5)"/><rect x="160" y="83" width="7" height="7" transform="rotate(0,163.5,86.5)"/><path d="M 160 90v 7h 7v -3.5a 3.5 3.5, 0, 0, 0, -3.5 -3.5" transform="rotate(180,163.5,93.5)"/><path d="M 160 111v 7h 7v -3.5a 3.5 3.5, 0, 0, 0, -3.5 -3.5" transform="rotate(-90,163.5,114.5)"/><rect x="160" y="118" width="7" height="7" transform="rotate(0,163.5,121.5)"/><rect x="160" y="125" width="7" height="7" transform="rotate(0,163.5,128.5)"/><path d="M 160 132v 7h 7v -3.5a 3.5 3.5, 0, 0, 0, -3.5 -3.5" transform="rotate(90,163.5,135.5)"/><rect x="160" y="160" width="7" height="7" transform="rotate(0,163.5,163.5)"/><path d="M 160 188v 7h 7v -3.5a 3.5 3.5, 0, 0, 0, -3.5 -3.5" transform="rotate(0,163.5,191.5)"/><path d="M 160 195v 7h 3.5a 3.5 3.5, 0, 0, 0, 0 -7" transform="rotate(90,163.5,198.5)"/><rect x="160" y="209" width="7" height="7" transform="rotate(0,163.5,212.5)"/><path d="M 160 230v 7h 3.5a 3.5 3.5, 0, 0, 0, 0 -7" transform="rotate(0,163.5,233.5)"/><circle cx="163.5" cy="254.5" r="3.5" transform="rotate(0,163.5,254.5)"/><path d="M 167 34v 7h 3.5a 3.5 3.5, 0, 0, 0, 0 -7" transform="rotate(0,170.5,37.5)"/><circle cx="170.5" cy="51.5" r="3.5" transform="rotate(0,170.5,51.5)"/><path d="M 167 69v 7h 3.5a 3.5 3.5, 0, 0, 0, 0 -7" transform="rotate(180,170.5,72.5)"/><path d="M 167 83v 7h 7v -3.5a 3.5 3.5, 0, 0, 0, -3.5 -3.5" transform="rotate(0,170.5,86.5)"/><rect x="167" y="90" width="7" height="7" transform="rotate(0,170.5,93.5)"/><rect x="167" y="97" width="7" height="7" transform="rotate(0,170.5,100.5)"/><rect x="167" y="104" width="7" height="7" transform="rotate(0,170.5,107.5)"/><rect x="167" y="111" width="7" height="7" transform="rotate(0,170.5,114.5)"/><path d="M 167 146v 7h 7v -3.5a 3.5 3.5, 0, 0, 0, -3.5 -3.5" transform="rotate(-90,170.5,149.5)"/><rect x="167" y="153" width="7" height="7" transform="rotate(0,170.5,156.5)"/><rect x="167" y="160" width="7" height="7" transform="rotate(0,170.5,163.5)"/><path d="M 167 167v 7h 7v -3.5a 3.5 3.5, 0, 0, 0, -3.5 -3.5" transform="rotate(180,170.5,170.5)"/><path d="M 167 202v 7h 3.5a 3.5 3.5, 0, 0, 0, 0 -7" transform="rotate(-90,170.5,205.5)"/><rect x="167" y="209" width="7" height="7" transform="rotate(0,170.5,212.5)"/><rect x="167" y="216" width="7" height="7" transform="rotate(0,170.5,219.5)"/><path d="M 167 223v 7h 7v -3.5a 3.5 3.5, 0, 0, 0, -3.5 -3.5" transform="rotate(180,170.5,226.5)"/><path d="M 167 237v 7h 3.5a 3.5 3.5, 0, 0, 0, 0 -7" transform="rotate(180,170.5,240.5)"/><circle cx="170.5" cy="268.5" r="3.5" transform="rotate(0,170.5,268.5)"/><circle cx="177.5" cy="30.5" r="3.5" transform="rotate(0,177.5,30.5)"/><path d="M 174 62v 7h 3.5a 3.5 3.5, 0, 0, 0, 0 -7" transform="rotate(-90,177.5,65.5)"/><rect x="174" y="69" width="7" height="7" transform="rotate(0,177.5,72.5)"/><path d="M 174 76v 7h 3.5a 3.5 3.5, 0, 0, 0, 0 -7" transform="rotate(90,177.5,79.5)"/><path d="M 174 97v 7h 3.5a 3.5 3.5, 0, 0, 0, 0 -7" transform="rotate(0,177.5,100.5)"/><rect x="174" y="111" width="7" height="7" transform="rotate(0,177.5,114.5)"/><rect x="174" y="118" width="7" height="7" transform="rotate(0,177.5,121.5)"/><path d="M 174 125v 7h 7v -3.5a 3.5 3.5, 0, 0, 0, -3.5 -3.5" transform="rotate(180,177.5,128.5)"/><rect x="174" y="146" width="7" height="7" transform="rotate(0,177.5,149.5)"/><path d="M 174 160v 7h 7v -3.5a 3.5 3.5, 0, 0, 0, -3.5 -3.5" transform="rotate(0,177.5,163.5)"/><rect x="174" y="167" width="7" height="7" transform="rotate(0,177.5,170.5)"/><path d="M 174 174v 7h 7v -3.5a 3.5 3.5, 0, 0, 0, -3.5 -3.5" transform="rotate(180,177.5,177.5)"/><path d="M 174 188v 7h 7v -3.5a 3.5 3.5, 0, 0, 0, -3.5 -3.5" transform="rotate(-90,177.5,191.5)"/><path d="M 174 195v 7h 3.5a 3.5 3.5, 0, 0, 0, 0 -7" transform="rotate(90,177.5,198.5)"/><rect x="174" y="209" width="7" height="7" transform="rotate(0,177.5,212.5)"/><rect x="174" y="216" width="7" height="7" transform="rotate(0,177.5,219.5)"/><rect x="174" y="223" width="7" height="7" transform="rotate(0,177.5,226.5)"/><rect x="174" y="230" width="7" height="7" transform="rotate(0,177.5,233.5)"/><rect x="174" y="237" width="7" height="7" transform="rotate(0,177.5,240.5)"/><circle cx="177.5" cy="275.5" r="3.5" transform="rotate(0,177.5,275.5)"/><circle cx="184.5" cy="23.5" r="3.5" transform="rotate(0,184.5,23.5)"/><path d="M 181 48v 7h 3.5a 3.5 3.5, 0, 0, 0, 0 -7" transform="rotate(-90,184.5,51.5)"/><path d="M 181 55v 7h 3.5a 3.5 3.5, 0, 0, 0, 0 -7" transform="rotate(90,184.5,58.5)"/><path d="M 181 90v 7h 3.5a 3.5 3.5, 0, 0, 0, 0 -7" transform="rotate(180,184.5,93.5)"/><path d="M 181 111v 7h 7v -3.5a 3.5 3.5, 0, 0, 0, -3.5 -3.5" transform="rotate(0,184.5,114.5)"/><rect x="181" y="118" width="7" height="7" transform="rotate(0,184.5,121.5)"/><rect x="181" y="125" width="7" height="7" transform="rotate(0,184.5,128.5)"/><path d="M 181 132v 7h 7v -3.5a 3.5 3.5, 0, 0, 0, -3.5 -3.5" transform="rotate(180,184.5,135.5)"/><path d="M 181 146v 7h 7v -3.5a 3.5 3.5, 0, 0, 0, -3.5 -3.5" transform="rotate(0,184.5,149.5)"/><path d="M 181 153v 7h 3.5a 3.5 3.5, 0, 0, 0, 0 -7" transform="rotate(90,184.5,156.5)"/><rect x="181" y="167" width="7" height="7" transform="rotate(0,184.5,170.5)"/><rect x="181" y="174" width="7" height="7" transform="rotate(0,184.5,177.5)"/><rect x="181" y="181" width="7" height="7" transform="rotate(0,184.5,184.5)"/><path d="M 181 188v 7h 7v -3.5a 3.5 3.5, 0, 0, 0, -3.5 -3.5" transform="rotate(90,184.5,191.5)"/><rect x="181" y="209" width="7" height="7" transform="rotate(0,184.5,212.5)"/><rect x="181" y="216" width="7" height="7" transform="rotate(0,184.5,219.5)"/><rect x="181" y="223" width="7" height="7" transform="rotate(0,184.5,226.5)"/><rect x="181" y="230" width="7" height="7" transform="rotate(0,184.5,233.5)"/><rect x="181" y="237" width="7" height="7" transform="rotate(0,184.5,240.5)"/><circle cx="184.5" cy="254.5" r="3.5" transform="rotate(0,184.5,254.5)"/><circle cx="191.5" cy="30.5" r="3.5" transform="rotate(0,191.5,30.5)"/><path d="M 188 41v 7h 3.5a 3.5 3.5, 0, 0, 0, 0 -7" transform="rotate(180,191.5,44.5)"/><circle cx="191.5" cy="65.5" r="3.5" transform="rotate(0,191.5,65.5)"/><path d="M 188 83v 7h 7v -3.5a 3.5 3.5, 0, 0, 0, -3.5 -3.5" transform="rotate(-90,191.5,86.5)"/><path d="M 188 90v 7h 7v -3.5a 3.5 3.5, 0, 0, 0, -3.5 -3.5" transform="rotate(90,191.5,93.5)"/><rect x="188" y="125" width="7" height="7" transform="rotate(0,191.5,128.5)"/><rect x="188" y="132" width="7" height="7" transform="rotate(0,191.5,135.5)"/><path d="M 188 160v 7h 7v -3.5a 3.5 3.5, 0, 0, 0, -3.5 -3.5" transform="rotate(-90,191.5,163.5)"/><rect x="188" y="167" width="7" height="7" transform="rotate(0,191.5,170.5)"/><rect x="188" y="209" width="7" height="7" transform="rotate(0,191.5,212.5)"/><path d="M 188 223v 7h 7v -3.5a 3.5 3.5, 0, 0, 0, -3.5 -3.5" transform="rotate(0,191.5,226.5)"/><rect x="188" y="230" width="7" height="7" transform="rotate(0,191.5,233.5)"/><rect x="188" y="237" width="7" height="7" transform="rotate(0,191.5,240.5)"/><path d="M 188 244v 7h 3.5a 3.5 3.5, 0, 0, 0, 0 -7" transform="rotate(90,191.5,247.5)"/><circle cx="191.5" cy="261.5" r="3.5" transform="rotate(0,191.5,261.5)"/><circle cx="191.5" cy="275.5" r="3.5" transform="rotate(0,191.5,275.5)"/><path d="M 195 20v 7h 3.5a 3.5 3.5, 0, 0, 0, 0 -7" transform="rotate(180,198.5,23.5)"/><path d="M 195 41v 7h 3.5a 3.5 3.5, 0, 0, 0, 0 -7" transform="rotate(0,198.5,44.5)"/><path d="M 195 76v 7h 3.5a 3.5 3.5, 0, 0, 0, 0 -7" transform="rotate(-90,198.5,79.5)"/><rect x="195" y="83" width="7" height="7" transform="rotate(0,198.5,86.5)"/><path d="M 195 97v 7h 3.5a 3.5 3.5, 0, 0, 0, 0 -7" transform="rotate(180,198.5,100.5)"/><circle cx="198.5" cy="114.5" r="3.5" transform="rotate(0,198.5,114.5)"/><rect x="195" y="125" width="7" height="7" transform="rotate(0,198.5,128.5)"/><rect x="195" y="132" width="7" height="7" transform="rotate(0,198.5,135.5)"/><path d="M 195 139v 7h 3.5a 3.5 3.5, 0, 0, 0, 0 -7" transform="rotate(90,198.5,142.5)"/><rect x="195" y="160" width="7" height="7" transform="rotate(0,198.5,163.5)"/><rect x="195" y="167" width="7" height="7" transform="rotate(0,198.5,170.5)"/><circle cx="198.5" cy="191.5" r="3.5" transform="rotate(0,198.5,191.5)"/><rect x="195" y="209" width="7" height="7" transform="rotate(0,198.5,212.5)"/><path d="M 195 216v 7h 7v -3.5a 3.5 3.5, 0, 0, 0, -3.5 -3.5" transform="rotate(180,198.5,219.5)"/><rect x="195" y="230" width="7" height="7" transform="rotate(0,198.5,233.5)"/><circle cx="198.5" cy="268.5" r="3.5" transform="rotate(0,198.5,268.5)"/><rect x="202" y="20" width="7" height="7" transform="rotate(0,205.5,23.5)"/><path d="M 202 62v 7h 3.5a 3.5 3.5, 0, 0, 0, 0 -7" transform="rotate(-90,205.5,65.5)"/><path d="M 202 69v 7h 3.5a 3.5 3.5, 0, 0, 0, 0 -7" transform="rotate(90,205.5,72.5)"/><path d="M 202 83v 7h 7v -3.5a 3.5 3.5, 0, 0, 0, -3.5 -3.5" transform="rotate(0,205.5,86.5)"/><rect x="202" y="90" width="7" height="7" transform="rotate(0,205.5,93.5)"/><path d="M 202 97v 7h 7v -3.5a 3.5 3.5, 0, 0, 0, -3.5 -3.5" transform="rotate(90,205.5,100.5)"/><path d="M 202 118v 7h 3.5a 3.5 3.5, 0, 0, 0, 0 -7" transform="rotate(-90,205.5,121.5)"/><rect x="202" y="125" width="7" height="7" transform="rotate(0,205.5,128.5)"/><rect x="202" y="160" width="7" height="7" transform="rotate(0,205.5,163.5)"/><path d="M 202 167v 7h 7v -3.5a 3.5 3.5, 0, 0, 0, -3.5 -3.5" transform="rotate(90,205.5,170.5)"/><path d="M 202 195v 7h 3.5a 3.5 3.5, 0, 0, 0, 0 -7" transform="rotate(-90,205.5,198.5)"/><rect x="202" y="202" width="7" height="7" transform="rotate(0,205.5,205.5)"/><rect x="202" y="209" width="7" height="7" transform="rotate(0,205.5,212.5)"/><path d="M 202 216v 7h 7v -3.5a 3.5 3.5, 0, 0, 0, -3.5 -3.5" transform="rotate(90,205.5,219.5)"/><path d="M 202 230v 7h 3.5a 3.5 3.5, 0, 0, 0, 0 -7" transform="rotate(0,205.5,233.5)"/><circle cx="205.5" cy="247.5" r="3.5" transform="rotate(0,205.5,247.5)"/><path d="M 202 272v 7h 3.5a 3.5 3.5, 0, 0, 0, 0 -7" transform="rotate(180,205.5,275.5)"/><rect x="209" y="20" width="7" height="7" transform="rotate(0,212.5,23.5)"/><path d="M 209 34v 7h 7v -3.5a 3.5 3.5, 0, 0, 0, -3.5 -3.5" transform="rotate(-90,212.5,37.5)"/><path d="M 209 41v 7h 3.5a 3.5 3.5, 0, 0, 0, 0 -7" transform="rotate(90,212.5,44.5)"/><circle cx="212.5" cy="58.5" r="3.5" transform="rotate(0,212.5,58.5)"/><path d="M 209 104v 7h 3.5a 3.5 3.5, 0, 0, 0, 0 -7" transform="rotate(180,212.5,107.5)"/><rect x="209" y="125" width="7" height="7" transform="rotate(0,212.5,128.5)"/><path d="M 209 139v 7h 7v -3.5a 3.5 3.5, 0, 0, 0, -3.5 -3.5" transform="rotate(-90,212.5,142.5)"/><rect x="209" y="146" width="7" height="7" transform="rotate(0,212.5,149.5)"/><rect x="209" y="153" width="7" height="7" transform="rotate(0,212.5,156.5)"/><rect x="209" y="160" width="7" height="7" transform="rotate(0,212.5,163.5)"/><circle cx="212.5" cy="191.5" r="3.5" transform="rotate(0,212.5,191.5)"/><rect x="209" y="209" width="7" height="7" transform="rotate(0,212.5,212.5)"/><path d="M 209 223v 7h 3.5a 3.5 3.5, 0, 0, 0, 0 -7" transform="rotate(180,212.5,226.5)"/><rect x="209" y="272" width="7" height="7" transform="rotate(0,212.5,275.5)"/><path d="M 216 20v 7h 3.5a 3.5 3.5, 0, 0, 0, 0 -7" transform="rotate(0,219.5,23.5)"/><path d="M 216 34v 7h 3.5a 3.5 3.5, 0, 0, 0, 0 -7" transform="rotate(0,219.5,37.5)"/><circle cx="219.5" cy="51.5" r="3.5" transform="rotate(0,219.5,51.5)"/><path d="M 216 62v 7h 3.5a 3.5 3.5, 0, 0, 0, 0 -7" transform="rotate(-90,219.5,65.5)"/><rect x="216" y="69" width="7" height="7" transform="rotate(0,219.5,72.5)"/><path d="M 216 76v 7h 7v -3.5a 3.5 3.5, 0, 0, 0, -3.5 -3.5" transform="rotate(180,219.5,79.5)"/><path d="M 216 90v 7h 7v -3.5a 3.5 3.5, 0, 0, 0, -3.5 -3.5" transform="rotate(-90,219.5,93.5)"/><rect x="216" y="97" width="7" height="7" transform="rotate(0,219.5,100.5)"/><rect x="216" y="104" width="7" height="7" transform="rotate(0,219.5,107.5)"/><rect x="216" y="111" width="7" height="7" transform="rotate(0,219.5,114.5)"/><rect x="216" y="118" width="7" height="7" transform="rotate(0,219.5,121.5)"/><rect x="216" y="125" width="7" height="7" transform="rotate(0,219.5,128.5)"/><rect x="216" y="139" width="7" height="7" transform="rotate(0,219.5,142.5)"/><path d="M 216 146v 7h 7v -3.5a 3.5 3.5, 0, 0, 0, -3.5 -3.5" transform="rotate(90,219.5,149.5)"/><path d="M 216 160v 7h 7v -3.5a 3.5 3.5, 0, 0, 0, -3.5 -3.5" transform="rotate(0,219.5,163.5)"/><path d="M 216 167v 7h 3.5a 3.5 3.5, 0, 0, 0, 0 -7" transform="rotate(90,219.5,170.5)"/><path d="M 216 195v 7h 3.5a 3.5 3.5, 0, 0, 0, 0 -7" transform="rotate(180,219.5,198.5)"/><path d="M 216 209v 7h 7v -3.5a 3.5 3.5, 0, 0, 0, -3.5 -3.5" transform="rotate(0,219.5,212.5)"/><rect x="216" y="216" width="7" height="7" transform="rotate(0,219.5,219.5)"/><rect x="216" y="223" width="7" height="7" transform="rotate(0,219.5,226.5)"/><rect x="216" y="230" width="7" height="7" transform="rotate(0,219.5,233.5)"/><rect x="216" y="237" width="7" height="7" transform="rotate(0,219.5,240.5)"/><rect x="216" y="244" width="7" height="7" transform="rotate(0,219.5,247.5)"/><rect x="216" y="251" width="7" height="7" transform="rotate(0,219.5,254.5)"/><rect x="216" y="258" width="7" height="7" transform="rotate(0,219.5,261.5)"/><rect x="216" y="265" width="7" height="7" transform="rotate(0,219.5,268.5)"/><rect x="216" y="272" width="7" height="7" transform="rotate(0,219.5,275.5)"/><path d="M 223 76v 7h 3.5a 3.5 3.5, 0, 0, 0, 0 -7" transform="rotate(0,226.5,79.5)"/><rect x="223" y="90" width="7" height="7" transform="rotate(0,226.5,93.5)"/><rect x="223" y="97" width="7" height="7" transform="rotate(0,226.5,100.5)"/><path d="M 223 118v 7h 7v -3.5a 3.5 3.5, 0, 0, 0, -3.5 -3.5" transform="rotate(0,226.5,121.5)"/><rect x="223" y="125" width="7" height="7" transform="rotate(0,226.5,128.5)"/><rect x="223" y="132" width="7" height="7" transform="rotate(0,226.5,135.5)"/><path d="M 223 139v 7h 7v -3.5a 3.5 3.5, 0, 0, 0, -3.5 -3.5" transform="rotate(90,226.5,142.5)"/><path d="M 223 181v 7h 3.5a 3.5 3.5, 0, 0, 0, 0 -7" transform="rotate(-90,226.5,184.5)"/><rect x="223" y="188" width="7" height="7" transform="rotate(0,226.5,191.5)"/><rect x="223" y="195" width="7" height="7" transform="rotate(0,226.5,198.5)"/><path d="M 223 202v 7h 3.5a 3.5 3.5, 0, 0, 0, 0 -7" transform="rotate(90,226.5,205.5)"/><rect x="223" y="216" width="7" height="7" transform="rotate(0,226.5,219.5)"/><rect x="223" y="244" width="7" height="7" transform="rotate(0,226.5,247.5)"/><rect x="223" y="251" width="7" height="7" transform="rotate(0,226.5,254.5)"/><path d="M 223 258v 7h 7v -3.5a 3.5 3.5, 0, 0, 0, -3.5 -3.5" transform="rotate(90,226.5,261.5)"/><rect x="223" y="272" width="7" height="7" transform="rotate(0,226.5,275.5)"/><rect x="230" y="90" width="7" height="7" transform="rotate(0,233.5,93.5)"/><rect x="230" y="97" width="7" height="7" transform="rotate(0,233.5,100.5)"/><rect x="230" y="104" width="7" height="7" transform="rotate(0,233.5,107.5)"/><path d="M 230 111v 7h 3.5a 3.5 3.5, 0, 0, 0, 0 -7" transform="rotate(90,233.5,114.5)"/><path d="M 230 146v 7h 3.5a 3.5 3.5, 0, 0, 0, 0 -7" transform="rotate(180,233.5,149.5)"/><path d="M 230 160v 7h 7v -3.5a 3.5 3.5, 0, 0, 0, -3.5 -3.5" transform="rotate(-90,233.5,163.5)"/><rect x="230" y="167" width="7" height="7" transform="rotate(0,233.5,170.5)"/><path d="M 230 174v 7h 3.5a 3.5 3.5, 0, 0, 0, 0 -7" transform="rotate(90,233.5,177.5)"/><rect x="230" y="216" width="7" height="7" transform="rotate(0,233.5,219.5)"/><circle cx="233.5" cy="233.5" r="3.5" transform="rotate(0,233.5,233.5)"/><rect x="230" y="244" width="7" height="7" transform="rotate(0,233.5,247.5)"/><path d="M 230 251v 7h 7v -3.5a 3.5 3.5, 0, 0, 0, -3.5 -3.5" transform="rotate(90,233.5,254.5)"/><path d="M 230 265v 7h 7v -3.5a 3.5 3.5, 0, 0, 0, -3.5 -3.5" transform="rotate(-90,233.5,268.5)"/><path d="M 230 272v 7h 7v -3.5a 3.5 3.5, 0, 0, 0, -3.5 -3.5" transform="rotate(90,233.5,275.5)"/><rect x="237" y="90" width="7" height="7" transform="rotate(0,240.5,93.5)"/><path d="M 237 97v 7h 7v -3.5a 3.5 3.5, 0, 0, 0, -3.5 -3.5" transform="rotate(90,240.5,100.5)"/><path d="M 237 118v 7h 3.5a 3.5 3.5, 0, 0, 0, 0 -7" transform="rotate(180,240.5,121.5)"/><path d="M 237 132v 7h 3.5a 3.5 3.5, 0, 0, 0, 0 -7" transform="rotate(-90,240.5,135.5)"/><rect x="237" y="139" width="7" height="7" transform="rotate(0,240.5,142.5)"/><rect x="237" y="146" width="7" height="7" transform="rotate(0,240.5,149.5)"/><rect x="237" y="153" width="7" height="7" transform="rotate(0,240.5,156.5)"/><path d="M 237 160v 7h 7v -3.5a 3.5 3.5, 0, 0, 0, -3.5 -3.5" transform="rotate(90,240.5,163.5)"/><path d="M 237 188v 7h 3.5a 3.5 3.5, 0, 0, 0, 0 -7" transform="rotate(180,240.5,191.5)"/><path d="M 237 202v 7h 3.5a 3.5 3.5, 0, 0, 0, 0 -7" transform="rotate(-90,240.5,205.5)"/><rect x="237" y="209" width="7" height="7" transform="rotate(0,240.5,212.5)"/><rect x="237" y="216" width="7" height="7" transform="rotate(0,240.5,219.5)"/><rect x="237" y="244" width="7" height="7" transform="rotate(0,240.5,247.5)"/><path d="M 237 265v 7h 3.5a 3.5 3.5, 0, 0, 0, 0 -7" transform="rotate(0,240.5,268.5)"/><path d="M 244 76v 7h 3.5a 3.5 3.5, 0, 0, 0, 0 -7" transform="rotate(180,247.5,79.5)"/><rect x="244" y="90" width="7" height="7" transform="rotate(0,247.5,93.5)"/><path d="M 244 111v 7h 7v -3.5a 3.5 3.5, 0, 0, 0, -3.5 -3.5" transform="rotate(-90,247.5,114.5)"/><rect x="244" y="118" width="7" height="7" transform="rotate(0,247.5,121.5)"/><path d="M 244 125v 7h 7v -3.5a 3.5 3.5, 0, 0, 0, -3.5 -3.5" transform="rotate(180,247.5,128.5)"/><rect x="244" y="139" width="7" height="7" transform="rotate(0,247.5,142.5)"/><rect x="244" y="146" width="7" height="7" transform="rotate(0,247.5,149.5)"/><rect x="244" y="153" width="7" height="7" transform="rotate(0,247.5,156.5)"/><path d="M 244 181v 7h 3.5a 3.5 3.5, 0, 0, 0, 0 -7" transform="rotate(-90,247.5,184.5)"/><rect x="244" y="188" width="7" height="7" transform="rotate(0,247.5,191.5)"/><path d="M 244 195v 7h 7v -3.5a 3.5 3.5, 0, 0, 0, -3.5 -3.5" transform="rotate(180,247.5,198.5)"/><rect x="244" y="209" width="7" height="7" transform="rotate(0,247.5,212.5)"/><rect x="244" y="216" width="7" height="7" transform="rotate(0,247.5,219.5)"/><rect x="244" y="223" width="7" height="7" transform="rotate(0,247.5,226.5)"/><rect x="244" y="230" width="7" height="7" transform="rotate(0,247.5,233.5)"/><rect x="244" y="237" width="7" height="7" transform="rotate(0,247.5,240.5)"/><rect x="244" y="244" width="7" height="7" transform="rotate(0,247.5,247.5)"/><path d="M 244 251v 7h 7v -3.5a 3.5 3.5, 0, 0, 0, -3.5 -3.5" transform="rotate(180,247.5,254.5)"/><circle cx="247.5" cy="275.5" r="3.5" transform="rotate(0,247.5,275.5)"/><rect x="251" y="76" width="7" height="7" transform="rotate(0,254.5,79.5)"/><rect x="251" y="83" width="7" height="7" transform="rotate(0,254.5,86.5)"/><rect x="251" y="90" width="7" height="7" transform="rotate(0,254.5,93.5)"/><path d="M 251 97v 7h 3.5a 3.5 3.5, 0, 0, 0, 0 -7" transform="rotate(90,254.5,100.5)"/><path d="M 251 111v 7h 7v -3.5a 3.5 3.5, 0, 0, 0, -3.5 -3.5" transform="rotate(0,254.5,114.5)"/><rect x="251" y="118" width="7" height="7" transform="rotate(0,254.5,121.5)"/><rect x="251" y="125" width="7" height="7" transform="rotate(0,254.5,128.5)"/><rect x="251" y="132" width="7" height="7" transform="rotate(0,254.5,135.5)"/><rect x="251" y="139" width="7" height="7" transform="rotate(0,254.5,142.5)"/><rect x="251" y="146" width="7" height="7" transform="rotate(0,254.5,149.5)"/><rect x="251" y="153" width="7" height="7" transform="rotate(0,254.5,156.5)"/><circle cx="254.5" cy="170.5" r="3.5" transform="rotate(0,254.5,170.5)"/><path d="M 251 195v 7h 7v -3.5a 3.5 3.5, 0, 0, 0, -3.5 -3.5" transform="rotate(0,254.5,198.5)"/><rect x="251" y="202" width="7" height="7" transform="rotate(0,254.5,205.5)"/><path d="M 251 209v 7h 7v -3.5a 3.5 3.5, 0, 0, 0, -3.5 -3.5" transform="rotate(90,254.5,212.5)"/><path d="M 251 223v 7h 7v -3.5a 3.5 3.5, 0, 0, 0, -3.5 -3.5" transform="rotate(0,254.5,226.5)"/><rect x="251" y="230" width="7" height="7" transform="rotate(0,254.5,233.5)"/><rect x="251" y="237" width="7" height="7" transform="rotate(0,254.5,240.5)"/><rect x="251" y="244" width="7" height="7" transform="rotate(0,254.5,247.5)"/><path d="M 251 251v 7h 7v -3.5a 3.5 3.5, 0, 0, 0, -3.5 -3.5" transform="rotate(90,254.5,254.5)"/><path d="M 258 76v 7h 7v -3.5a 3.5 3.5, 0, 0, 0, -3.5 -3.5" transform="rotate(0,261.5,79.5)"/><rect x="258" y="83" width="7" height="7" transform="rotate(0,261.5,86.5)"/><rect x="258" y="90" width="7" height="7" transform="rotate(0,261.5,93.5)"/><path d="M 258 118v 7h 7v -3.5a 3.5 3.5, 0, 0, 0, -3.5 -3.5" transform="rotate(0,261.5,121.5)"/><rect x="258" y="125" width="7" height="7" transform="rotate(0,261.5,128.5)"/><path d="M 258 132v 7h 7v -3.5a 3.5 3.5, 0, 0, 0, -3.5 -3.5" transform="rotate(90,261.5,135.5)"/><path d="M 258 146v 7h 7v -3.5a 3.5 3.5, 0, 0, 0, -3.5 -3.5" transform="rotate(0,261.5,149.5)"/><rect x="258" y="153" width="7" height="7" transform="rotate(0,261.5,156.5)"/><path d="M 258 160v 7h 3.5a 3.5 3.5, 0, 0, 0, 0 -7" transform="rotate(90,261.5,163.5)"/><path d="M 258 174v 7h 7v -3.5a 3.5 3.5, 0, 0, 0, -3.5 -3.5" transform="rotate(-90,261.5,177.5)"/><rect x="258" y="181" width="7" height="7" transform="rotate(0,261.5,184.5)"/><path d="M 258 188v 7h 3.5a 3.5 3.5, 0, 0, 0, 0 -7" transform="rotate(90,261.5,191.5)"/><circle cx="261.5" cy="261.5" r="3.5" transform="rotate(0,261.5,261.5)"/><path d="M 258 272v 7h 3.5a 3.5 3.5, 0, 0, 0, 0 -7" transform="rotate(180,261.5,275.5)"/><rect x="265" y="90" width="7" height="7" transform="rotate(0,268.5,93.5)"/><rect x="265" y="97" width="7" height="7" transform="rotate(0,268.5,100.5)"/><rect x="265" y="104" width="7" height="7" transform="rotate(0,268.5,107.5)"/><path d="M 265 111v 7h 3.5a 3.5 3.5, 0, 0, 0, 0 -7" transform="rotate(90,268.5,114.5)"/><rect x="265" y="153" width="7" height="7" transform="rotate(0,268.5,156.5)"/><path d="M 265 167v 7h 7v -3.5a 3.5 3.5, 0, 0, 0, -3.5 -3.5" transform="rotate(-90,268.5,170.5)"/><rect x="265" y="174" width="7" height="7" transform="rotate(0,268.5,177.5)"/><rect x="265" y="181" width="7" height="7" transform="rotate(0,268.5,184.5)"/><path d="M 265 202v 7h 3.5a 3.5 3.5, 0, 0, 0, 0 -7" transform="rotate(-90,268.5,205.5)"/><path d="M 265 209v 7h 3.5a 3.5 3.5, 0, 0, 0, 0 -7" transform="rotate(90,268.5,212.5)"/><circle cx="268.5" cy="233.5" r="3.5" transform="rotate(0,268.5,233.5)"/><circle cx="268.5" cy="254.5" r="3.5" transform="rotate(0,268.5,254.5)"/><rect x="265" y="272" width="7" height="7" transform="rotate(0,268.5,275.5)"/><path d="M 272 90v 7h 3.5a 3.5 3.5, 0, 0, 0, 0 -7" transform="rotate(0,275.5,93.5)"/><path d="M 272 104v 7h 3.5a 3.5 3.5, 0, 0, 0, 0 -7" transform="rotate(0,275.5,107.5)"/><path d="M 272 153v 7h 7v -3.5a 3.5 3.5, 0, 0, 0, -3.5 -3.5" transform="rotate(0,275.5,156.5)"/><rect x="272" y="160" width="7" height="7" transform="rotate(0,275.5,163.5)"/><path d="M 272 167v 7h 7v -3.5a 3.5 3.5, 0, 0, 0, -3.5 -3.5" transform="rotate(90,275.5,170.5)"/><path d="M 272 181v 7h 3.5a 3.5 3.5, 0, 0, 0, 0 -7" transform="rotate(0,275.5,184.5)"/><circle cx="275.5" cy="198.5" r="3.5" transform="rotate(0,275.5,198.5)"/><circle cx="275.5" cy="226.5" r="3.5" transform="rotate(0,275.5,226.5)"/><circle cx="275.5" cy="240.5" r="3.5" transform="rotate(0,275.5,240.5)"/><path d="M 272 258v 7h 3.5a 3.5 3.5, 0, 0, 0, 0 -7" transform="rotate(-90,275.5,261.5)"/><rect x="272" y="265" width="7" height="7" transform="rotate(0,275.5,268.5)"/><path d="M 272 272v 7h 7v -3.5a 3.5 3.5, 0, 0, 0, -3.5 -3.5" transform="rotate(90,275.5,275.5)"/></clipPath><clipPath id="clip-path-corners-square-color-0-0"><path clip-rule="evenodd" d="M 20 37.5v 14a 17.5 17.5, 0, 0, 0, 17.5 17.5h 14a 17.5 17.5, 0, 0, 0, 17.5 -17.5v -14a 17.5 17.5, 0, 0, 0, -17.5 -17.5h -14a 17.5 17.5, 0, 0, 0, -17.5 17.5M 37.5 27h 14a 10.5 10.5, 0, 0, 1, 10.5 10.5v 14a 10.5 10.5, 0, 0, 1, -10.5 10.5h -14a 10.5 10.5, 0, 0, 1, -10.5 -10.5v -14a 10.5 10.5, 0, 0, 1, 10.5 -10.5" transform="rotate(0,44.5,44.5)"/></clipPath><clipPath id="clip-path-corners-dot-color-0-0"><circle cx="44.5" cy="44.5" r="10.5" transform="rotate(0,44.5,44.5)"/></clipPath><clipPath id="clip-path-corners-square-color-1-0"><path clip-rule="evenodd" d="M 230 37.5v 14a 17.5 17.5, 0, 0, 0, 17.5 17.5h 14a 17.5 17.5, 0, 0, 0, 17.5 -17.5v -14a 17.5 17.5, 0, 0, 0, -17.5 -17.5h -14a 17.5 17.5, 0, 0, 0, -17.5 17.5M 247.5 27h 14a 10.5 10.5, 0, 0, 1, 10.5 10.5v 14a 10.5 10.5, 0, 0, 1, -10.5 10.5h -14a 10.5 10.5, 0, 0, 1, -10.5 -10.5v -14a 10.5 10.5, 0, 0, 1, 10.5 -10.5" transform="rotate(90,254.5,44.5)"/></clipPath><clipPath id="clip-path-corners-dot-color-1-0"><circle cx="254.5" cy="44.5" r="10.5" transform="rotate(90,254.5,44.5)"/></clipPath><clipPath id="clip-path-corners-square-color-0-1"><path clip-rule="evenodd" d="M 20 247.5v 14a 17.5 17.5, 0, 0, 0, 17.5 17.5h 14a 17.5 17.5, 0, 0, 0, 17.5 -17.5v -14a 17.5 17.5, 0, 0, 0, -17.5 -17.5h -14a 17.5 17.5, 0, 0, 0, -17.5 17.5M 37.5 237h 14a 10.5 10.5, 0, 0, 1, 10.5 10.5v 14a 10.5 10.5, 0, 0, 1, -10.5 10.5h -14a 10.5 10.5, 0, 0, 1, -10.5 -10.5v -14a 10.5 10.5, 0, 0, 1, 10.5 -10.5" transform="rotate(-90,44.5,254.5)"/></clipPath><clipPath id="clip-path-corners-dot-color-0-1"><circle cx="44.5" cy="254.5" r="10.5" transform="rotate(-90,44.5,254.5)"/></clipPath></defs><rect x="0" y="0" height="300" width="300" clip-path="url('#clip-path-background-color')" fill="#2b2e43"/><rect x="20" y="20" height="259" width="259" clip-path="url('#clip-path-dot-color')" fill="#f0f8ff"/><rect x="20" y="20" height="49" width="49" clip-path="url('#clip-path-corners-square-color-0-0')" fill="#f0f8ff"/><rect x="34" y="34" height="21" width="21" clip-path="url('#clip-path-corners-dot-color-0-0')" fill="#f0f8ff"/><rect x="230" y="20" height="49" width="49" clip-path="url('#clip-path-corners-square-color-1-0')" fill="#f0f8ff"/><rect x="244" y="34" height="21" width="21" clip-path="url('#clip-path-corners-dot-color-1-0')" fill="#f0f8ff"/><rect x="20" y="230" height="49" width="49" clip-path="url('#clip-path-corners-square-color-0-1')" fill="#f0f8ff"/><rect x="34" y="244" height="21" width="21" clip-path="url('#clip-path-corners-dot-color-0-1')" fill="#f0f8ff"/></svg>